# xmcd
#
# Track frame offsets: 
#        150
#        19735
#        45973
#        74968
#        91985
#        109640
#        128965
#        150730
#        165393
#        188248
#
# Disc length: 2700 seconds
#
# Revision: 18
# Processed by: cddbd v1.5.2PL0 Copyright (c) Steve Scherf et al.
# Submitted via: ExactAudioCopy v1.0b3
#
DISCID=7e0a8a0a
DTITLE=Pet Shop Boys - Release
DYEAR=2002
DGENRE=Pop
TTITLE0=Home and Dry
TTITLE1=I Get Along
TTITLE2=Birthday Boy
TTITLE3=London
TTITLE4=E-Mail
TTITLE5=The Samurai in Autumn
TTITLE6=Love Is a Catastrophe
TTITLE7=Here
TTITLE8=The Night I Fell in Love
TTITLE9=You Choose
EXTD=YEAR: 2002
EXTT0=
EXTT1=
EXTT2=
EXTT3=
EXTT4=
EXTT5=
EXTT6=
EXTT7=
EXTT8=
EXTT9=
PLAYORDER=
